<svg width="24" height="24" viewBox="0 0 24 24" fill="none" xmlns="http://www.w3.org/2000/svg">
<g id="Frame">
<path id="Vector" fill-rule="evenodd" clip-rule="evenodd" d="M3.60034 5.99973C3.60034 5.36321 3.8532 4.75276 4.30329 4.30268C4.75337 3.85259 5.36382 3.59973 6.00034 3.59973H18.0003C18.6369 3.59973 19.2473 3.85259 19.6974 4.30268C20.1475 4.75276 20.4003 5.36321 20.4003 5.99973V15.5997C20.4003 16.2362 20.1475 16.8467 19.6974 17.2968C19.2473 17.7469 18.6369 17.9997 18.0003 17.9997H15.3363L15.4839 18.5865L16.4487 19.5513C16.6165 19.7192 16.7308 19.9329 16.777 20.1657C16.8233 20.3984 16.7996 20.6397 16.7088 20.8589C16.618 21.0782 16.4642 21.2656 16.2669 21.3974C16.0696 21.5293 15.8376 21.5997 15.6003 21.5997H8.40034C8.16304 21.5997 7.93108 21.5293 7.73379 21.3974C7.5365 21.2656 7.38273 21.0782 7.29193 20.8589C7.20112 20.6397 7.17736 20.3984 7.22364 20.1657C7.26992 19.9329 7.38417 19.7192 7.55194 19.5513L8.51674 18.5865L8.66434 17.9997H6.00034C5.36382 17.9997 4.75337 17.7469 4.30329 17.2968C3.8532 16.8467 3.60034 16.2362 3.60034 15.5997V5.99973ZM10.5255 14.3997H6.00034V5.99973H18.0003V14.3997H10.5255Z" fill="#F1F5F8"/>
</g>
</svg>
