<svg width="24" height="24" viewBox="0 0 24 24" fill="none" xmlns="http://www.w3.org/2000/svg">
<g id="Frame">
<path id="Vector" fill-rule="evenodd" clip-rule="evenodd" d="M4.7999 3.60004C4.16338 3.60004 3.55293 3.85289 3.10285 4.30298C2.65276 4.75307 2.3999 5.36352 2.3999 6.00004V18C2.3999 18.6366 2.65276 19.247 3.10285 19.6971C3.55293 20.1472 4.16338 20.4 4.7999 20.4H19.1999C19.8364 20.4 20.4469 20.1472 20.897 19.6971C21.347 19.247 21.5999 18.6366 21.5999 18V6.00004C21.5999 5.36352 21.347 4.75307 20.897 4.30298C20.4469 3.85289 19.8364 3.60004 19.1999 3.60004H4.7999ZM19.1999 18H4.7999L9.5999 8.40004L13.1999 15.6L15.5999 10.8L19.1999 18Z" fill="#F1F5F8"/>
</g>
</svg>
