<svg width="24" height="24" viewBox="0 0 24 24" fill="none" xmlns="http://www.w3.org/2000/svg">
<g id="vuesax/linear/instagram">
<g id="vuesax/linear/instagram_2">
<g id="instagram">
<path id="Vector" d="M9 22.0005H15C20 22.0005 22 20.0005 22 15.0005V9.00049C22 4.00049 20 2.00049 15 2.00049H9C4 2.00049 2 4.00049 2 9.00049V15.0005C2 20.0005 4 22.0005 9 22.0005Z" stroke="white" stroke-width="1.5" stroke-linecap="round" stroke-linejoin="round"/>
<path id="Vector_2" d="M12 15.501C13.933 15.501 15.5 13.934 15.5 12.001C15.5 10.068 13.933 8.50098 12 8.50098C10.067 8.50098 8.5 10.068 8.5 12.001C8.5 13.934 10.067 15.501 12 15.501Z" stroke="white" stroke-width="1.5" stroke-linecap="round" stroke-linejoin="round"/>
<path id="Vector_3" d="M17.6361 7.00024H17.6477" stroke="white" stroke-width="2" stroke-linecap="round" stroke-linejoin="round"/>
</g>
</g>
</g>
</svg>
