<svg width="24" height="24" viewBox="0 0 24 24" fill="none" xmlns="http://www.w3.org/2000/svg">
<g id="Frame">
<path id="Vector" fill-rule="evenodd" clip-rule="evenodd" d="M8.4 2.40009C7.76348 2.40009 7.15303 2.65294 6.70294 3.10303C6.25286 3.55312 6 4.16357 6 4.80009V19.2001C6 19.8366 6.25286 20.4471 6.70294 20.8971C7.15303 21.3472 7.76348 21.6001 8.4 21.6001H15.6C16.2365 21.6001 16.847 21.3472 17.2971 20.8971C17.7471 20.4471 18 19.8366 18 19.2001V4.80009C18 4.16357 17.7471 3.55312 17.2971 3.10303C16.847 2.65294 16.2365 2.40009 15.6 2.40009H8.4ZM12 19.2001C12.3183 19.2001 12.6235 19.0737 12.8485 18.8486C13.0736 18.6236 13.2 18.3183 13.2 18.0001C13.2 17.6818 13.0736 17.3766 12.8485 17.1516C12.6235 16.9265 12.3183 16.8001 12 16.8001C11.6817 16.8001 11.3765 16.9265 11.1515 17.1516C10.9264 17.3766 10.8 17.6818 10.8 18.0001C10.8 18.3183 10.9264 18.6236 11.1515 18.8486C11.3765 19.0737 11.6817 19.2001 12 19.2001Z" fill="#F1F5F8"/>
</g>
</svg>
